<?xml version="1.0" encoding="utf-8"?>
<!-- Generator: Adobe Illustrator 21.0.0, SVG Export Plug-In . SVG Version: 6.00 Build 0)  -->
<svg version="1.1" id="Layer_1" xmlns="http://www.w3.org/2000/svg" xmlns:xlink="http://www.w3.org/1999/xlink" x="0px" y="0px"
	 viewBox="0 0 72 92.2" style="enable-background:new 0 0 72 92.2;" xml:space="preserve">
<style type="text/css">
	.st0{fill-rule:evenodd;clip-rule:evenodd;fill:#2169C9;}
</style>
<g>
	<path class="st0" d="M56.9,3.4h-50v22.4h50V3.4L56.9,3.4z M50.3,19.3H13.4V10h36.9V19.3L50.3,19.3z"/>
	<path class="st0" d="M70,14.7c0-0.1,0-0.2,0-0.3l-4-11.5l-2.8,1l3.3,9.3h-6.4c-0.5,0-0.9,0.2-1.2,0.6c-0.3,0.4-0.4,0.8-0.3,1.3
		l3.3,13.4c0.2,0.7,0.8,1.1,1.4,1.1h1.9c0.6,0,1.1-0.1,1.6-0.3v36.4c0,1.5-1.2,2.7-2.7,2.7c-1.5,0-2.7-1.2-2.7-2.7V36.8h-4.5v-5.9
		h-50v46.1h25v3.2H2v9.2h59.6v-9.2h-4.8V39.4h1.8v26.3c0,3,2.4,5.4,5.4,5.4c3,0,5.4-2.4,5.4-5.4V27c0.4-0.7,0.6-1.4,0.6-2.2V14.7
		L70,14.7z M65.2,26.6h-0.7l-2.6-10.4H67v8.6C67,25.8,66.2,26.6,65.2,26.6L65.2,26.6z"/>
</g>
</svg>
