<?xml version="1.0" encoding="utf-8"?>
<!-- Generator: Adobe Illustrator 21.0.0, SVG Export Plug-In . SVG Version: 6.00 Build 0)  -->
<svg version="1.1" id="Layer_1" xmlns="http://www.w3.org/2000/svg" xmlns:xlink="http://www.w3.org/1999/xlink" x="0px" y="0px"
	 viewBox="0 0 101 89.5" style="enable-background:new 0 0 101 89.5;" xml:space="preserve">
<style type="text/css">
	.st0{fill-rule:evenodd;clip-rule:evenodd;fill:#4FD103;}
	.st1{fill-rule:evenodd;clip-rule:evenodd;fill:#4FD103;stroke:#FFFFFF;stroke-width:0.5669;stroke-miterlimit:22.9256;}
	.st2{fill-rule:evenodd;clip-rule:evenodd;fill:#66B238;}
</style>
<g>
	<path class="st0" d="M3.2,75.5H37v8.7h22.7V66.8c2.7-3.9,4.2-8.8,4.2-14.2c0-8.6-3.6-16-10.4-19.9C51.5,16.9,42.8,5.4,32.1,5.4H3.2
		v6.8h28.8c6.3,0,11.9,7.6,14.1,18c-1.3-0.2-2.7-0.4-4.2-0.4H3.2v18.4h26.5c1.3,0,2.2,1,2.2,2.3c0,1.2-1,2.2-2.2,2.2H3.2v2h26.5
		c1.3,0,2.2,1,2.2,2.3c0,1.2-1,2.2-2.2,2.2H3.2V75.5L3.2,75.5z M37.2,52.6c0-4.1,3.3-7.4,7.4-7.4c4.1,0,7.4,3.3,7.4,7.4
		c0,4.1-3.3,7.4-7.4,7.4C40.5,60.1,37.2,56.7,37.2,52.6L37.2,52.6z"/>
	<path class="st0" d="M72,57.6c0,0,8.3-2.4,10.4,6l0.8-0.2c0,0-1.2-8.9-9.4-8.6L72,57.6L72,57.6z"/>
	<path class="st0" d="M70.9,53.5l-1.3,0.9L70.9,53.5L70.9,53.5L70.9,53.5z M92.5,62.3c-5,2.7-8.9,4.6-12.3,3.7
		c-5.2-1.5-11.2-9.6-11.9-10.5l2.6-1.9c1.6,2.3,6.6,8.3,10.1,9.3c2.2,0.6,5.6-1.1,9.9-3.4L92.5,62.3L92.5,62.3z"/>
	<polygon class="st0" points="96.3,62.4 90.8,66.6 77.4,49.6 82.8,45.3 96.3,62.4 	"/>
	<path class="st0" d="M74.2,44c-0.3,0.9-1.3,1.4-2.2,1.1l-7.2-2.4c-0.9-0.3-2.4-0.6-3.4-0.6l-13.6-0.3c-1,0-1.7-0.8-1.7-1.8l0-1.2
		c0-1,0.8-1.7,1.8-1.7l14,0.4c1,0,1.8,0.1,2,0.1c0.1,0,1.2,0.3,2.1,0.7l7.5,2.5c0.9,0.3,1.4,1.3,1.1,2.2L74.2,44L74.2,44z"/>
	<polygon class="st0" points="69.3,59.1 84.3,47.2 84.4,46.6 80.8,41.9 70.1,38.2 67.7,45 70.2,45.9 71,47.6 68.4,52.4 67.1,55.3 
		69.3,59.1 	"/>
	<path class="st1" d="M97.4,61.7c0.7,0.8,0.5,2.1-0.3,2.7l-4.4,3.4c-0.8,0.7-2.1,0.5-2.7-0.3l-0.3-0.3c-0.7-0.8-0.5-2.1,0.3-2.7
		l4.4-3.4c0.8-0.7,2.1-0.5,2.7,0.3L97.4,61.7L97.4,61.7z"/>
	<path class="st2" d="M93.5,58.8l-9.2-11.6l0,0L93.5,58.8L93.5,58.8z M79.1,51.7l-0.3-0.2l0.1-0.1L79.1,51.7L79.1,51.7z"/>
	<path class="st0" d="M94,61.4l-14.9-9.7l-0.2-0.2l5.5-4.3l9.2,11.6l1.5,1.9c-0.2,0.1-0.4,0.2-0.6,0.3L94,61.4L94,61.4L94,61.4z"/>
	<path class="st0" d="M94,61.4l0.4-0.3c0.2-0.2,0.4-0.3,0.6-0.3l0,0L94,61.4L94,61.4z"/>
</g>
</svg>
