<?xml version="1.0" encoding="utf-8"?>
<!-- Generator: Adobe Illustrator 21.0.0, SVG Export Plug-In . SVG Version: 6.00 Build 0)  -->
<svg version="1.1" id="Layer_1" xmlns="http://www.w3.org/2000/svg" xmlns:xlink="http://www.w3.org/1999/xlink" x="0px" y="0px"
	 viewBox="0 0 161 149.3" style="enable-background:new 0 0 161 149.3;" xml:space="preserve">
<style type="text/css">
	.st0{fill:#2069C8;}
	.st1{fill:#E21E24;}
	.st2{fill-rule:evenodd;clip-rule:evenodd;fill:#2069C8;}
	.st3{fill-rule:evenodd;clip-rule:evenodd;fill:#E21E24;}
	.st4{fill-rule:evenodd;clip-rule:evenodd;fill:#B4B2B1;}
	.st5{fill-rule:evenodd;clip-rule:evenodd;fill:#9C9A99;}
</style>
<symbol>
	<path class="st0" d="M88.8,136.9c0-1.9-0.5-3.5-1.4-4.6c-1-1.2-2.5-1.8-4.4-1.8h-2.6v12.5h2.6C86.8,143.1,88.8,141,88.8,136.9
		 M93.6,136.9c0,3.4-1,6.1-3,7.9c-1.9,1.8-4.6,2.6-8.1,2.6h-6.9v-21h7.6c3.2,0,5.8,0.9,7.6,2.8C92.6,131.1,93.6,133.6,93.6,136.9z
		 M61.8,130.3c-1.8,0-3.2,0.7-4.4,2c-1.2,1.3-1.8,2.8-1.8,4.6c0,1.8,0.6,3.3,1.8,4.6c1.2,1.3,2.7,2,4.4,2c1.8,0,3.3-0.7,4.5-2
		c1.1-1.3,1.7-2.8,1.7-4.6c0-1.8-0.6-3.4-1.7-4.6C65,130.9,63.6,130.3,61.8,130.3z M61.8,147.8c-3.1,0-5.7-1.1-7.8-3.2
		c-2.1-2.1-3.2-4.7-3.2-7.8c0-3.1,1.1-5.6,3.2-7.7c2.1-2.1,4.8-3.2,7.8-3.2c3.1,0,5.7,1,7.8,3.1c2.1,2.1,3.2,4.7,3.2,7.8
		c0,3.1-1.1,5.7-3.2,7.8C67.5,146.7,64.9,147.8,61.8,147.8z M37.7,130.3c-1.8,0-3.2,0.7-4.4,2c-1.2,1.3-1.8,2.8-1.8,4.6
		c0,1.8,0.6,3.3,1.8,4.6c1.2,1.3,2.7,2,4.4,2c1.8,0,3.3-0.7,4.5-2c1.1-1.3,1.7-2.8,1.7-4.6c0-1.8-0.6-3.4-1.7-4.6
		C41,130.9,39.5,130.3,37.7,130.3z M37.7,147.8c-3.1,0-5.7-1.1-7.8-3.2c-2.1-2.1-3.2-4.7-3.2-7.8c0-3.1,1.1-5.6,3.2-7.7
		c2.1-2.1,4.8-3.2,7.8-3.2c3.1,0,5.7,1,7.8,3.1c2.1,2.1,3.2,4.7,3.2,7.8c0,3.1-1.1,5.7-3.2,7.8C43.4,146.7,40.8,147.8,37.7,147.8z
		 M24.8,135.7c0,3.4-1,6.3-2.9,8.5c-2,2.4-4.8,3.5-8.2,3.5c-3.1,0-5.7-1.1-7.9-3.2c-2.1-2.1-3.2-4.7-3.2-7.8c0-3.1,1.1-5.7,3.3-7.7
		c2.1-2,4.8-3.1,7.9-3.1c2.3,0,4.4,0.6,6.3,1.9c1.9,1.3,3.2,3,3.9,5.1h-5.5c-1.1-1.8-2.7-2.7-4.8-2.7c-1.8,0-3.3,0.6-4.5,1.9
		c-1.2,1.3-1.8,2.8-1.8,4.5c0,1.9,0.6,3.5,1.7,4.8c1.2,1.3,2.7,2,4.6,2c2.8,0,4.6-1.3,5.6-3.8h-7.1v-4H24.8z"/>
	<path class="st1" d="M158.4,126.3l-6.3,13.3v7.7h-4.8v-7.7l-6.3-13.3h5.2l3.5,8.8l0,0l3.5-8.8H158.4z M134.1,139.7l-2.4-7.5
		l-2.5,7.5H134.1z M142,147.4h-5.2l-1.3-3.8h-7.6l-1.4,3.8h-5.2l8.4-21h3.9L142,147.4z M121.6,126.3l-5.8,21h-4.2l-3.3-14.2
		l-3.4,14.2h-4.3l-5.7-21h4.9l3.3,14.4l3.4-14.4h3.7l3.3,14.4l3.3-14.4H121.6z"/>
	<path class="st2" d="M72.9,4.6c0.3,0.1,4.5,3.5,5.3,4.1c1.3,0.9,2.4,1.9,3.7,2.9c0.2,0.2,0.3,0.3,0.5,0.4c0.4,0.3,0.7,0.5,1,0.8
		l4.6,3.8c0.1,0.1,0.1,0.1,0.2,0.2c0.1,0.1,0.1,0.1,0.3,0.2l3,2.7c0.8,0.6,4.7,4.4,5.2,5.1c0.4,0.5,0.9,1,1.4,1.5
		c0.4,0.5,0.9,1,1.3,1.5l1.3,1.6c1.1,1.4,2.1,2.9,3.1,4.5c0.3,0.6,0.7,1.2,1,1.8c0.1,0.2,0.2,0.4,0.3,0.6c0.4,0.9,0.7,1.6,1.1,2.7
		c0.5,1.4,0.9,3,1.1,4.5c0,0.2,0.2,2.4,0.2,2.7c-0.2,1.8-0.1,2.2-0.5,4.2c-0.5,2.2-1.2,4.3-2.1,6.4c-0.1,0.3-0.2,0.5-0.3,0.7
		c-2.7,5.7-5.6,12-5.9,18.1c-0.2,3,0.7,12.3,3.2,14.1c6.2-4.5,21.6-21.6,28-28c1-1,1.6-2,2.2-3.3c0.7-1.5,0.9-3.8,0.6-5.6
		c-0.3-1.8-1.1-3.7-2.3-5c-0.2-0.2-0.3-0.3-0.4-0.4c-0.7-0.9-7.1-7.1-8.2-8.2c-11.5-11.5-23-23-34.5-34.5C85.7,3,83.6,2,81.6,1.7
		c-0.3,0-0.5-0.1-0.7-0.1c-0.4,0-0.5-0.1-0.8-0.1c-1.5,0-2.9,0.3-4.2,0.9c-0.8,0.3-1.7,0.9-2.4,1.5C73.3,4.1,72.9,4.2,72.9,4.6"/>
	<path class="st3" d="M78.8,16.1c0.1,0.1,0,0,0.1,0.1c0.8,1.3,1.6,2.7,2.2,4.1l0.3,0.5c2.5,5.3,3.7,10.4,0.6,15.9
		c-2.7,4.8-11.7,9.7-16.7,11.8c-6.7,2.8-24.9,13.1-28.4,19.7c0.3,0.4,8.4,8.2,9,8.8c0.2,0.2,0.3,0.4,0.6,0.5
		c1.2-20,33.7-26.4,39.3-40.8c0.7-1.8,0.8-4.2,0.7-6.1c-0.4-4.8-2.8-9.9-5.3-14.1c-0.8-1.3-1.7-2.6-2.5-3.9
		c-0.5-0.8-1.1-1.5-1.7-2.3l-2.1-2.8c-0.4-0.4-1.9-2.5-2.3-2.8c-0.3,0.1-0.6,0.5-0.8,0.7L57.7,19.6c0,0,0,0,0,0l-1.2,1.2
		c0,0-0.1,0.1-0.1,0.1l-1.7,1.7c0,0-0.1,0.1-0.1,0.1c-0.4,0.4-0.9,0.9-1.3,1.3L52,25.3c-7.3,7.3-14.6,14.7-21.9,22
		c-1.3,1.3-2.1,3.1-2.6,4.9c-0.2,0.8-0.2,1.8-0.2,2.8c0.3-0.1,0.5-0.2,0.7-0.3c2.4-1.2,5-2.3,7.5-3.2c4.4-1.6,8.8-3.1,13.3-4.4
		l3.4-1c4.9-1.4,9.8-2.8,14.5-4.7c2.8-1.1,7.2-3.3,9.3-5.4c2.6-2.4,4.1-4.8,4.7-8.6c0.4-2.7-0.1-5.3-0.7-7.8
		C79.8,18.9,78.9,16.4,78.8,16.1"/>
	<path class="st2" d="M95.5,28.1c0.1,0.2,1,2,1.2,2.4c0.2,0.4,0.4,0.8,0.6,1.2c0.2,0.4,0.4,0.8,0.5,1.3c0.3,0.9,0.6,1.7,0.9,2.7
		c0.1,0.3,0.1,0.4,0.2,0.7c0.5,2.8,0.7,4.5,0.3,7.4c-0.3,1.8-0.9,3.9-1.7,5.5c-1.4,2.8-3,5.2-5,7.7c-0.7,0.8-1.4,1.6-2.1,2.5l-3,3.4
		c-0.3,0.3-0.6,0.6-0.9,0.9c-0.2,0.2-0.2,0.3-0.4,0.5c-0.2,0.2-0.2,0.3-0.4,0.5c-0.2,0.2-0.2,0.3-0.4,0.5c-2.2,2.4-4.2,4.9-6.1,7.5
		c-1.2,1.6-2.1,3.4-3,5.2c-0.3,0.6-0.5,1.3-0.8,1.9c-0.1,0.2-0.1,0.4-0.2,0.7c-0.5,1.8-1,3.5-1,5.4c0,2,0,3.2,0.3,5.1
		c0.1,0.8,0.3,1.5,0.5,2.2c0.1,0.3,0.1,0.5,0.2,0.7c0.5,1.8,1.3,3.5,2.1,5.2c0.1,0.2,0.2,0.4,0.3,0.6l0.6,1.2
		c0.4,0.8,0.9,1.5,1.4,2.3c0.1,0.2,0.2,0.4,0.4,0.6c0.5,0.7,0.9,1.4,1.5,2.1c0.2,0.3,0.5,0.8,0.8,1c0.3-0.1,4.3-3.3,4.9-3.8l4.9-3.8
		c-0.4-0.6-0.9-1.2-1.3-1.8c-0.2-0.3-0.4-0.6-0.6-0.9c-1.9-3.2-3.4-5.8-4.3-9.6c-0.2-0.8-0.3-1.8-0.5-2.6c-0.1-0.8-0.2-2.1-0.2-3
		c0.1-2.6,0.7-5.2,1.6-7.7c0.9-2.2,1.9-4.2,3.1-6.2c1.2-1.9,2.4-3.8,3.7-5.7l2.4-3.8c0.1-0.2,0.2-0.3,0.3-0.5c0.4-0.6,0.8-1.3,1.1-2
		l0.8-1.5c0.2-0.3,0.4-0.7,0.5-1c0.2-0.4,0.3-0.7,0.5-1.1c0.2-0.4,0.3-0.7,0.4-1.1c0.5-1.2,0.8-2.4,1-3.7c0.7-3.4,0.3-7.4-1-10.8
		c-0.4-1.1-0.9-2.2-1.4-3.2C98,31.9,96.2,28.6,95.5,28.1"/>
	<polygon class="st4" points="95.5,28 95.5,28 95.4,28 	"/>
	<path class="st5" d="M95.5,28.1L95.5,28.1L95.5,28.1z"/>
</symbol>
</svg>
