<?xml version="1.0" encoding="utf-8"?>
<!-- Generator: Adobe Illustrator 21.0.0, SVG Export Plug-In . SVG Version: 6.00 Build 0)  -->
<svg version="1.1" id="Layer_1" xmlns="http://www.w3.org/2000/svg" xmlns:xlink="http://www.w3.org/1999/xlink" x="0px" y="0px"
	 viewBox="0 0 10.8 14.1" style="enable-background:new 0 0 10.8 14.1;" xml:space="preserve">
<style type="text/css">
	.st0{fill:#2B2929;}
</style>
<g>
	<path class="st0" d="M0.8,8.4V6.1h1.1V0.4h3.2c0.9,0,1.5,0,2,0.1S8,0.8,8.4,1.1c0.5,0.3,0.9,0.8,1.2,1.4s0.4,1.2,0.4,2
		c0,0.8-0.2,1.5-0.5,2.1S8.8,7.6,8.2,7.9C7.9,8.1,7.5,8.2,7,8.3c-0.5,0.1-1.1,0.1-2,0.1H4.3v0.7h3.5v2.4H4.3v2.2H1.8v-2.2H0.8V9.1
		h1.1V8.4H0.8z M4.3,6.1H5c0.7,0,1.2-0.1,1.5-0.2c0.3-0.1,0.6-0.3,0.7-0.5s0.3-0.6,0.3-0.9c0-0.4-0.1-0.7-0.3-1S6.8,3,6.5,2.9
		C6.2,2.8,5.7,2.7,5.1,2.7H4.3V6.1z"/>
</g>
</svg>
